<?xml version="1.0" encoding="UTF-8"?>
<svg version="1.1" xmlns="http://www.w3.org/2000/svg" width="1264" height="842">
<path d="M0 0 C417.12 0 834.24 0 1264 0 C1264 277.86 1264 555.72 1264 842 C846.88 842 429.76 842 0 842 C0 564.14 0 286.28 0 0 Z " fill="#FDFDFD" transform="translate(0,0)"/>
<path d="M0 0 C35.31 0 70.62 0 107 0 C111.45370189 33.40276421 111.45370189 33.40276421 113 47.25 C114.27204939 58.43226923 115.7827963 69.54368834 117.5703125 80.65722656 C118.7502264 88.08743239 119.68119157 95.52188454 120.5 103 C121.42312162 111.41511412 122.53126301 119.76683685 123.875 128.125 C125.97168164 141.18564313 127.58678966 154.29640656 129.16162109 167.42822266 C130.51975202 178.6643303 132.16294761 189.83226217 134 201 C134.35078613 200.33806641 134.70157227 199.67613281 135.06298828 198.99414062 C142.09164117 185.76105653 149.2711548 172.67023199 156.88720703 159.76367188 C160.72383338 153.24301685 164.41161721 146.66021065 168 140 C172.1819 132.239802 176.52813504 124.59673852 181 117 C186.00884189 108.48722717 190.8391564 99.90073909 195.53564453 91.2121582 C199.60358103 83.69461694 203.78645607 76.24708726 208.00634766 68.81396484 C211.42482222 62.79132455 214.81550394 56.7541887 218.18603516 50.70458984 C226.6821583 35.46272967 235.41162425 20.36164645 244.34375 5.37109375 C244.83037109 4.55439209 245.31699219 3.73769043 245.81835938 2.89624023 C247 1 247 1 248 0 C251.1050725 -0.09533653 254.18786458 -0.12551126 257.29321289 -0.11352539 C258.26871597 -0.11367142 259.24421906 -0.11381744 260.24928284 -0.1139679 C263.49042953 -0.11326833 266.73151954 -0.10547391 269.97265625 -0.09765625 C272.21325143 -0.09579222 274.45384702 -0.09436825 276.69444275 -0.09336853 C282.6045951 -0.08954213 288.51472305 -0.0797108 294.42486572 -0.06866455 C300.45055817 -0.05845306 306.47625453 -0.05387147 312.50195312 -0.04882812 C324.33464616 -0.03808864 336.16732106 -0.02101076 348 0 C347.22664923 3.35416808 346.06490766 5.93671588 344.3671875 8.9453125 C343.81611328 9.92636963 343.26503906 10.90742676 342.69726562 11.91821289 C342.09591797 12.97645264 341.49457031 14.03469238 340.875 15.125 C340.25044922 16.23157959 339.62589844 17.33815918 338.98242188 18.47827148 C329.22453475 35.72847448 319.26308258 52.86159279 309.26293945 69.97216797 C305.04410391 77.19517362 300.86024739 84.43778972 296.6875 91.6875 C290.9808189 101.59973105 285.21451696 111.47537537 279.4208374 121.33685303 C273.71812954 131.04550725 268.06996117 140.78430591 262.453125 150.54296875 C258.32653496 157.70974296 254.1731254 164.86023113 250 172 C245.13893099 180.31749406 240.30851792 188.65201631 235.5 197 C230.69148156 205.34798459 225.86094317 213.68243184 221 222 C213.61585107 234.63743454 206.30509865 247.31675298 199 260 C191.48090504 273.05479135 183.9548669 286.10536926 176.375 299.125 C175.8070874 300.10227051 175.2391748 301.07954102 174.65405273 302.08642578 C174.11594971 303.0092334 173.57784668 303.93204102 173.0234375 304.8828125 C172.55856934 305.68090332 172.09370117 306.47899414 171.61474609 307.30126953 C171.08187988 308.19185059 170.54901367 309.08243164 170 310 C169.7139537 310.65393423 169.42790739 311.30786846 169.13319302 311.98161888 C167.96323833 314.35454872 166.86481008 316.11374361 165 318 C161.36379672 319.17022996 157.85102907 319.01320192 154.05932617 318.90820312 C152.95644257 318.90937134 151.85355896 318.91053955 150.71725464 318.91174316 C147.07454159 318.90617276 143.43510916 318.8439619 139.79296875 318.78125 C137.26664519 318.76632797 134.74029847 318.75494078 132.21394348 318.74694824 C126.24586286 318.71953235 120.27918881 318.6564993 114.31167156 318.57615232 C107.51620458 318.48664928 100.72068062 318.44272678 93.92477071 318.40258884 C79.94919659 318.31902743 65.97466271 318.17836727 52 318 C44.40105513 272.51362163 44.40105513 272.51362163 40.69140625 249.89453125 C40.56264414 249.10958345 40.43388203 248.32463566 40.30121803 247.51590157 C39.65190203 243.55721946 39.00288255 239.5984888 38.35397339 235.63973999 C33.9511632 208.78327865 29.51539068 181.93386972 24.89086914 155.11450195 C22.94541736 143.79885772 21.11501143 132.47111017 19.39744568 121.11845398 C17.50972089 108.16031456 17.50972089 108.16031456 14.95703125 95.32421875 C13.92669697 90.84873557 13.28886883 86.36275205 12.6875 81.8125 C11.49474888 73.16252238 10.13395141 64.54854822 8.6875 55.9375 C8.47996094 54.7012085 8.27242188 53.46491699 8.05859375 52.19116211 C7.24218089 47.3418775 6.42228309 42.49318883 5.60107422 37.64471436 C4.76328545 32.69772995 3.92826247 27.75029275 3.09658813 22.80227661 C2.6935049 20.41062937 2.28661845 18.01964887 1.87963867 15.62866211 C1.63180079 14.15612053 1.38415142 12.68354722 1.13671875 11.2109375 C0.91717529 9.91462402 0.69763184 8.61831055 0.47143555 7.28271484 C0 4 0 4 0 0 Z " fill="#171715" transform="translate(342,265)"/>
<path d="M0 0 C76.56 0 153.12 0 232 0 C231.39668894 5.4297995 230.81894281 10.39183807 229.70898438 15.66552734 C229.45201782 16.89645111 229.19505127 18.12737488 228.93029785 19.39559937 C228.65159245 20.70907595 228.37273972 22.02252128 228.09375 23.3359375 C227.80579045 24.70587531 227.51815781 26.07588188 227.23083496 27.44595337 C226.63160058 30.29899963 226.02957517 33.15143666 225.42529297 36.00341797 C224.65111241 39.65758296 223.88227686 43.31284639 223.11528778 46.96852684 C222.52312662 49.78951144 221.92905267 52.61009027 221.33430481 55.43053055 C221.05004824 56.77885439 220.7661808 58.12726033 220.48271179 59.47574997 C220.08729395 61.35449601 219.68921655 63.23268171 219.29101562 65.11083984 C219.06530884 66.17845551 218.83960205 67.24607117 218.60705566 68.34603882 C218 71 218 71 217 74 C172.12 74 127.24 74 81 74 C80.34 78.62 79.68 83.24 79 88 C78.03037398 92.34023077 77.02493502 96.67249657 76 101 C73.525 112.88 73.525 112.88 71 125 C111.26 125 151.52 125 193 125 C193 132.87465029 193 132.87465029 192.14550781 136.88354492 C191.95821106 137.77945847 191.77091431 138.67537201 191.57794189 139.59843445 C191.37175232 140.54950577 191.16556274 141.50057709 190.953125 142.48046875 C190.74065125 143.4885408 190.52817749 144.49661285 190.30926514 145.53523254 C189.62944739 148.75409666 188.94006545 151.97081886 188.25 155.1875 C187.57628946 158.35817456 186.9046024 161.52927095 186.23358154 164.70051575 C185.81701988 166.66585939 185.39864814 168.63082092 184.97784424 170.59526062 C182.89006086 180.38002292 180.96283498 190.18582508 179 200 C138.74 200 98.48 200 57 200 C56.505 203.96 56.505 203.96 56 208 C55.68207251 209.87860522 55.34493915 211.75411012 54.984375 213.625 C54.7879541 214.64770996 54.5915332 215.67041992 54.38916016 216.72412109 C54.1782373 217.80516113 53.96731445 218.88620117 53.75 220 C53.52747559 221.14936035 53.30495117 222.2987207 53.07568359 223.48291016 C51.65136563 230.79320453 50.16264804 238.08780273 48.625 245.375 C46.46723301 255.60679563 44.43325059 265.86060987 42.4375 276.125 C42.28692139 276.89912231 42.13634277 277.67324463 41.98120117 278.4708252 C39.95401337 288.90958293 37.97639994 299.35567634 36.15405273 309.83251953 C35.10340509 315.79318981 35.10340509 315.79318981 34 318 C-0.32 318 -34.64 318 -70 318 C-67.92435913 302.43269349 -67.92435913 302.43269349 -65.83300781 294.59399414 C-64.75581073 289.94645069 -64.03966754 285.26936299 -63.296875 280.55859375 C-61.73169196 270.92170215 -59.93216586 261.34617428 -57.9765625 251.78125 C-57.84182652 251.12197447 -57.70709053 250.46269894 -57.56827164 249.78344536 C-56.73318716 245.7044181 -55.89207363 241.62665083 -55.04876709 237.54931641 C-53.78982441 231.46113269 -52.53712821 225.37167227 -51.2890625 219.28125 C-51.15260126 218.61621271 -51.01614002 217.95117542 -50.87554359 217.26598549 C-48.45249607 205.43809611 -46.19071979 193.58294969 -44.01052856 181.70800781 C-42.65879301 174.37666569 -41.20144178 167.08499336 -39.5625 159.8125 C-37.6475224 151.22129311 -35.96031624 142.60071463 -34.35635376 133.94723511 C-30.41587197 112.68815641 -26.02045152 91.52813053 -21.60417175 70.3634491 C-20.39783893 64.57665315 -19.19736421 58.78865778 -18 53 C-17.75511841 51.81849365 -17.51023682 50.6369873 -17.25793457 49.41967773 C-16.54396977 45.96319463 -15.83725458 42.50530994 -15.1328125 39.046875 C-14.91696503 38.00525208 -14.70111755 36.96362915 -14.47872925 35.89044189 C-14.28352692 34.92467224 -14.08832458 33.95890259 -13.88720703 32.96386719 C-13.62908737 31.7018045 -13.62908737 31.7018045 -13.36575317 30.41424561 C-12.93162239 27.96813137 -12.93162239 27.96813137 -13.0124054 25.33700562 C-12.99629176 22.30141949 -12.01200223 20.80004512 -10.41015625 18.2421875 C-9.87326172 17.36949219 -9.33636719 16.49679687 -8.78320312 15.59765625 C-8.21537109 14.69917969 -7.64753906 13.80070312 -7.0625 12.875 C-5.94680121 11.08223142 -4.83341321 9.28802211 -3.72265625 7.4921875 C-2.97640991 6.30665283 -2.97640991 6.30665283 -2.21508789 5.09716797 C-0.86352066 2.9271969 -0.86352066 2.9271969 0 0 Z " fill="#FAC613" transform="translate(690,265)"/>
<path d="M0 0 C0.33 0 0.66 0 1 0 C1.08183001 2.35488588 1.14087568 4.70686161 1.1875 7.0625 C1.23970703 9.02896484 1.23970703 9.02896484 1.29296875 11.03515625 C0.97486552 15.34015329 -0.28970939 18.0663316 -2 22 C-2.60853202 25.1302285 -2.90809382 28.26301371 -3.1875 31.4375 C-3.33165627 32.96499912 -3.4766491 34.49241944 -3.62231445 36.01977539 C-3.74695068 37.33324951 -3.87158691 38.64672363 -4 40 C12.48733828 40.06527717 28.96767572 40.0119141 45.453125 39.74609375 C46.22336502 39.73386402 46.99360504 39.72163429 47.78718567 39.70903397 C54.90558483 39.59563965 62.02388489 39.47679614 69.14208984 39.35180664 C73.10050994 39.28256242 77.05898525 39.21834281 81.01753998 39.15730476 C82.50553398 39.13333691 83.99349796 39.1074193 85.48142242 39.07946587 C87.5321656 39.04100756 89.58291632 39.00890813 91.63378906 38.97827148 C92.79493225 38.95828598 93.95607544 38.93830048 95.15240479 38.91770935 C98 39 98 39 101 40 C104.61407378 40.27073323 108.22779264 40.44551729 111.84765625 40.62109375 C115 41 115 41 117 43 C117.23399897 49.94196934 115.72896179 56.53041925 113.7578125 63.1328125 C112.64141204 67.35671938 112.09180271 71.62951254 111.52734375 75.95703125 C110.9791287 79.1204351 110.03865516 81.96712693 109 85 C108.65596692 87.33177975 108.32050798 89.66487041 108 92 C107.67 92.33 107.34 92.66 107 93 C106.7384609 94.6562272 106.53266724 96.32134025 106.3515625 97.98828125 C106.17367187 99.51291992 106.17367187 99.51291992 105.9921875 101.06835938 C105.74880318 103.21868573 105.51174743 105.3697385 105.28125 107.52148438 C105.16007813 108.54177734 105.03890625 109.56207031 104.9140625 110.61328125 C104.7586499 112.01767456 104.7586499 112.01767456 104.60009766 113.45043945 C103.90478775 116.40451647 103.08285894 117.80128526 101 120 C98.74115467 120.49219131 98.74115467 120.49219131 96.04560852 120.48101807 C95.02337189 120.48651672 94.00113525 120.49201538 92.94792175 120.49768066 C91.82726822 120.48329956 90.70661469 120.46891846 89.55200195 120.45410156 C88.37138184 120.45468567 87.19076172 120.45526978 85.97436523 120.45587158 C82.73676701 120.45356077 79.49985856 120.43348842 76.262398 120.40557575 C72.87916064 120.38058611 69.49591002 120.37822205 66.1125946 120.37347412 C59.70581507 120.36103708 53.29930826 120.32820593 46.89264888 120.28807616 C39.5989235 120.24338085 32.30518516 120.2213771 25.01135695 120.20129442 C10.00741929 120.1594737 -4.99626309 120.08910781 -20 120 C-20.05478516 121.03278076 -20.10957031 122.06556152 -20.16601562 123.12963867 C-20.24576975 124.49660097 -20.32586589 125.86354335 -20.40625 127.23046875 C-20.44137695 127.9097644 -20.47650391 128.58906006 -20.51269531 129.28894043 C-20.81276137 134.22652736 -21.60690727 137.71237552 -24 142 C-25.33764063 144.67528126 -25.29941479 147.01987683 -25.5 150 C-25.88888889 155.77777778 -25.88888889 155.77777778 -27 158 C-27.154636 159.72676868 -27.2747343 161.45672296 -27.375 163.1875 C-27.77811273 168.03744998 -28.90806493 171.57475274 -31 176 C-32.07923607 179.31095952 -33.04959931 182.65000608 -34 186 C-35.33438263 181.58199598 -34.41497193 177.86358023 -33.5 173.4375 C-33.3242041 172.55360596 -33.1484082 171.66971191 -32.96728516 170.7590332 C-32.55900584 168.71166761 -32.14673797 166.66509515 -31.73144531 164.61914062 C-30.88917502 160.45164571 -30.06528864 156.28068835 -29.2421875 152.109375 C-28.62064453 148.96858066 -27.99794471 145.82801658 -27.375 142.6875 C-27.14744019 141.53832596 -27.14744019 141.53832596 -26.9152832 140.36593628 C-26.47431233 138.14326342 -26.03052348 135.92117099 -25.5859375 133.69921875 C-25.3286084 132.40846436 -25.0712793 131.11770996 -24.80615234 129.7878418 C-23.96536029 125.83723954 -22.97962146 121.91848584 -22 118 C18.26 118 58.52 118 100 118 C100.33 114.7 100.66 111.4 101 108 C101.44433423 105.38480774 101.927587 102.77587226 102.453125 100.17578125 C102.59368317 99.47468735 102.73424133 98.77359344 102.87905884 98.05125427 C103.3311415 95.80398058 103.79035818 93.55823857 104.25 91.3125 C104.56552381 89.75233058 104.88078855 88.19210874 105.19580078 86.63183594 C107.20038245 76.73997121 109.27608509 66.86440875 111.48925781 57.0168457 C111.76914551 55.76327271 111.76914551 55.76327271 112.0546875 54.484375 C112.21437012 53.78022461 112.37405273 53.07607422 112.53857422 52.35058594 C113.14625202 49.25496588 113.55385796 46.12299426 114 43 C73.74 43 33.48 43 -8 43 C-5.69030391 25.67727931 -5.69030391 25.67727931 -4 17.5625 C-3.835 16.74330078 -3.67 15.92410156 -3.5 15.08007812 C-2.46684409 10.01519271 -1.2874697 5.006188 0 0 Z " fill="#FEFDDB" transform="translate(769,347)"/>
<path d="M0 0 C76.56 0 153.12 0 232 0 C231.37603087 5.61572215 230.74137489 10.75900852 229.58984375 16.22265625 C229.32236328 17.50205078 229.05488281 18.78144531 228.77929688 20.09960938 C228.49879058 21.4205926 228.21819051 22.74155591 227.9375 24.0625 C227.65260708 25.4185384 227.36809891 26.77465768 227.08398438 28.13085938 C226.3930909 31.42138594 225.69833305 34.71104574 225 38 C224.67 38 224.34 38 224 38 C223.33423524 27.3662573 225.26220097 18.20563476 228 8 C228.66 8 229.32 8 230 8 C230 6.02 230 4.04 230 2 C117.635 2.495 117.635 2.495 3 3 C2.01 4.98 1.02 6.96 0 9 C-0.99 9 -1.98 9 -3 9 C-3.103125 9.86625 -3.20625 10.7325 -3.3125 11.625 C-4.03398414 15.16683123 -5.27123261 17.84312042 -7 21 C-7.99 21 -8.98 21 -10 21 C-10.50567374 25.20767175 -11.0035354 29.41623253 -11.5 33.625 C-11.64308594 34.81480469 -11.78617188 36.00460937 -11.93359375 37.23046875 C-12.06894531 38.38417969 -12.20429687 39.53789062 -12.34375 40.7265625 C-12.46943359 41.78439941 -12.59511719 42.84223633 -12.72460938 43.93212891 C-13.05510064 47.02063902 -13.05510064 47.02063902 -12.95507812 50.21630859 C-13.01272101 53.78828784 -14.38302153 55.82823455 -16 59 C-18.13852486 66.3990673 -18.85015305 74.10958094 -19.6796875 81.74023438 C-20.3930659 87.52427403 -21.78928411 92.30480842 -24.09082031 97.64916992 C-25.45606603 101.17923196 -25.81166219 104.41795842 -26.1875 108.1875 C-26.32628406 109.51437939 -26.4656028 110.84120297 -26.60546875 112.16796875 C-26.73566406 113.43253906 -26.86585938 114.69710937 -27 116 C-27.56741824 120.6307099 -28.5165638 124.32043501 -30.24609375 128.6484375 C-31.46163985 132.43993363 -31.88483852 136.32390973 -32.375 140.265625 C-33.0808909 144.48332312 -34.11246857 148.55809583 -35.17089844 152.69921875 C-36.60269954 158.39943988 -37.86818788 164.13408433 -39.125 169.875 C-39.38925781 171.03902344 -39.65351562 172.20304688 -39.92578125 173.40234375 C-41.49136112 180.57858042 -42.39614158 187.50555189 -42.68701172 194.84814453 C-43.10602721 199.06771553 -43.80255056 202.61832757 -46.625 205.875 C-47.305625 206.431875 -47.305625 206.431875 -48 207 C-47.29388076 199.7085513 -46.10046329 192.57300028 -44.75 185.375 C-44.41621338 183.58231689 -44.41621338 183.58231689 -44.07568359 181.75341797 C-42.7110721 174.51491855 -41.23296444 167.31296422 -39.625 160.125 C-37.68244449 151.42949811 -35.97858921 142.70156107 -34.35534668 133.94219971 C-30.41585087 112.68468952 -26.02009792 91.52643592 -21.60417175 70.3634491 C-20.39783893 64.57665315 -19.19736421 58.78865778 -18 53 C-17.75511841 51.81849365 -17.51023682 50.6369873 -17.25793457 49.41967773 C-16.54396977 45.96319463 -15.83725458 42.50530994 -15.1328125 39.046875 C-14.91696503 38.00525208 -14.70111755 36.96362915 -14.47872925 35.89044189 C-14.28352692 34.92467224 -14.08832458 33.95890259 -13.88720703 32.96386719 C-13.62908737 31.7018045 -13.62908737 31.7018045 -13.36575317 30.41424561 C-12.93162239 27.96813137 -12.93162239 27.96813137 -13.0124054 25.33700562 C-12.99629176 22.30141949 -12.01200223 20.80004512 -10.41015625 18.2421875 C-9.87326172 17.36949219 -9.33636719 16.49679687 -8.78320312 15.59765625 C-8.21537109 14.69917969 -7.64753906 13.80070312 -7.0625 12.875 C-5.94680121 11.08223142 -4.83341321 9.28802211 -3.72265625 7.4921875 C-2.97640991 6.30665283 -2.97640991 6.30665283 -2.21508789 5.09716797 C-0.86352066 2.9271969 -0.86352066 2.9271969 0 0 Z " fill="#E7CA52" transform="translate(690,265)"/>
<path d="M0 0 C0.33 0 0.66 0 1 0 C0.51005604 7.6730207 -0.4431907 15.00229518 -2.125 22.5 C-2.57656869 24.59063964 -3.02561902 26.68182422 -3.47265625 28.7734375 C-3.7164502 29.91393555 -3.96024414 31.05443359 -4.21142578 32.22949219 C-5.73482026 39.51348736 -7.14607555 46.81958124 -8.5625 54.125 C-8.71271606 54.89785339 -8.86293213 55.67070679 -9.0177002 56.46697998 C-11.04531209 66.90701838 -13.02337014 77.35435452 -14.84594727 87.83251953 C-15.89659491 93.79318981 -15.89659491 93.79318981 -17 96 C-51.32 96 -85.64 96 -121 96 C-119.74775436 86.60815769 -118.51842542 78.01596302 -116 69 C-115.67 69 -115.34 69 -115 69 C-114.875 76.625 -114.875 76.625 -116 80 C-116.33 83.96 -116.66 87.92 -117 92 C-68.49 92.495 -68.49 92.495 -19 93 C-18.67 87.72 -18.34 82.44 -18 77 C-17.16720572 73.22808251 -16.2952322 69.67519264 -15.1875 66 C-12.64884496 56.96996613 -10.85457678 48.00285519 -9.40356445 38.74072266 C-8.38368136 32.24744915 -7.23087201 25.80686258 -5.875 19.375 C-5.71628418 18.61155273 -5.55756836 17.84810547 -5.39404297 17.06152344 C-4.50835502 12.93576361 -3.4197573 8.98285898 -2 5 C-1.34 5 -0.68 5 0 5 C0 3.35 0 1.7 0 0 Z " fill="#F0C835" transform="translate(741,487)"/>
<path d="M0 0 C31.82571786 0.96370373 63.66464655 1.04885675 95.50214881 1.24396372 C103.6769808 1.29421175 111.85178236 1.34879569 120.02658463 1.4036361 C136.77355266 1.51589094 153.52054897 1.62303876 170.26757336 1.72655487 C170.26757336 2.38655487 170.26757336 3.04655487 170.26757336 3.72655487 C93.04757336 3.72655487 15.82757336 3.72655487 -63.73242664 3.72655487 C-62.73242664 1.72655487 -62.73242664 1.72655487 -60.91992664 1.12133026 C-41.34021319 -2.41219615 -19.81446585 -0.6023717 0 0 Z " fill="#FEFCCF" transform="translate(751.7324266433716,261.27344512939453)"/>
<path d="M0 0 C0.33 0 0.66 0 1 0 C1.05506505 1.52040718 1.09326375 3.04142704 1.125 4.5625 C1.14820313 5.40941406 1.17140625 6.25632812 1.1953125 7.12890625 C0.9578319 10.61987105 -0.03080669 13.63756401 -1 17 C-1.57247108 20.15386553 -2.00251935 23.3246107 -2.4375 26.5 C-3.31164219 32.62964876 -4.2862218 38.69090146 -5.5625 44.75 C-6.95199709 51.35734816 -7.77592679 57.9282094 -8.47265625 64.63671875 C-8.94466865 67.64710893 -9.58499476 69.38111502 -11 72 C-18.26922655 72.14560809 -25.53851841 72.28756981 -32.80786133 72.42724609 C-35.26979098 72.47495108 -37.73170584 72.52342657 -40.19360352 72.57275391 C-56.13124637 72.89144173 -72.05907816 73.07619313 -88 73 C-88 72.67 -88 72.34 -88 72 C-95.64082476 71.97683628 -103.28164588 71.95906431 -110.92249775 71.94818783 C-114.47039848 71.94296784 -118.0182752 71.9358862 -121.56616211 71.92456055 C-125.64437084 71.91162337 -129.72255433 71.90676448 -133.80078125 71.90234375 C-135.07585037 71.89718246 -136.35091949 71.89202118 -137.66462708 71.88670349 C-139.43612373 71.88659019 -139.43612373 71.88659019 -141.2434082 71.88647461 C-142.28487503 71.884254 -143.32634186 71.88203339 -144.39936829 71.87974548 C-147.11484837 71.88713309 -147.11484837 71.88713309 -150 73 C-150.33 73.99 -150.66 74.98 -151 76 C-150.67 73.69 -150.34 71.38 -150 69 C-105.12 69 -60.24 69 -14 69 C-13.34 65.04 -12.68 61.08 -12 57 C-11.49741102 54.31238329 -10.98192119 51.62712296 -10.44921875 48.9453125 C-10.31003021 48.24399704 -10.17084167 47.54268158 -10.0274353 46.82011414 C-9.58323239 44.5879135 -9.13570559 42.35640012 -8.6875 40.125 C-8.53481659 39.36174408 -8.38213318 38.59848816 -8.224823 37.81210327 C-5.69050598 25.15905674 -2.97180135 12.55825731 0 0 Z " fill="#FEF6BE" transform="translate(921,270)"/>
<path d="M0 0 C1.37648516 3.80437068 0.65006527 6.73312884 -0.1796875 10.62890625 C-0.58380859 12.55186523 -0.58380859 12.55186523 -0.99609375 14.51367188 C-1.28902631 15.8632891 -1.58199545 17.2128984 -1.875 18.5625 C-2.16092215 19.91585404 -2.44608664 21.26936839 -2.73046875 22.62304688 C-4.81902306 32.45706917 -4.81902306 32.45706917 -6 36 C-50.88 36 -95.76 36 -142 36 C-142.66 40.62 -143.32 45.24 -144 50 C-144.67144836 53.00553074 -145.3453957 56.01082196 -146.0703125 59.00390625 C-147.39771344 64.57989318 -148.52548701 70.20026806 -149.6875 75.8125 C-149.9141333 76.9061084 -150.1407666 77.9997168 -150.37426758 79.12646484 C-150.91730133 81.75074668 -151.45925998 84.37524472 -152 87 C-152.33 87 -152.66 87 -153 87 C-151.89030812 66.99634383 -151.89030812 66.99634383 -149.00390625 59.3671875 C-147.60302338 54.66850643 -147.27774991 49.99761362 -146.875 45.125 C-146.78863281 44.15046875 -146.70226562 43.1759375 -146.61328125 42.171875 C-146.40238659 39.78173554 -146.19815363 37.39122375 -146 35 C-145.34 35 -144.68 35 -144 35 C-143.67 34.34 -143.34 33.68 -143 33 C-98.45 33.33 -53.9 33.66 -8 34 C-8 31.69 -8 29.38 -8 27 C-7.34 27 -6.68 27 -6 27 C-6.03480469 26.16597656 -6.06960938 25.33195312 -6.10546875 24.47265625 C-6.27964644 17.23184082 -5.7316536 11.71531509 -3 5 C-2.34 5 -1.68 5 -1 5 C-0.67 3.35 -0.34 1.7 0 0 Z " fill="#EEC634" transform="translate(913,303)"/>
<path d="M0 0 C0.33 0 0.66 0 1 0 C0.57555286 9.06194649 -1.21252508 17.84283871 -2.96484375 26.71875 C-4.02670495 32.13624565 -5.01244855 37.56846702 -6 43 C-7.65 50.92 -9.3 58.84 -11 67 C23.32 67 57.64 67 93 67 C94.32 59.08 95.64 51.16 97 43 C97.89460523 38.15971486 98.79754095 33.32818866 99.75 28.5 C100.08064453 26.80230469 100.08064453 26.80230469 100.41796875 25.0703125 C100.94242413 22.37962837 101.46968767 19.68953463 102 17 C102.33 17 102.66 17 103 17 C102.86105852 20.10451549 102.712657 23.20850835 102.5625 26.3125 C102.52318359 27.19357422 102.48386719 28.07464844 102.44335938 28.98242188 C102.40146484 29.82998047 102.35957031 30.67753906 102.31640625 31.55078125 C102.27974854 32.33106689 102.24309082 33.11135254 102.20532227 33.9152832 C102 36 102 36 101 39 C100.87342875 40.66511507 100.77234255 42.33223796 100.6875 44 C100.2656383 49.1507953 98.98513513 53.43177988 97.03515625 58.19921875 C96.17176314 60.53526728 95.52513162 62.76292426 94.93530273 65.17504883 C94.62665283 66.43728271 94.31800293 67.6995166 94 69 C80.19659113 69.02333058 66.3931853 69.04091354 52.58976078 69.05181217 C46.18100872 69.05704166 39.77226985 69.0641405 33.36352539 69.07543945 C27.18440559 69.08626599 21.00529852 69.09227634 14.82616997 69.09487724 C12.4629439 69.09673192 10.09971856 69.10035332 7.73649788 69.10573006 C4.43898104 69.11293738 1.14151753 69.11399107 -2.15600586 69.11352539 C-3.14358887 69.11712067 -4.13117187 69.12071594 -5.14868164 69.12442017 C-6.04195663 69.1230455 -6.93523163 69.12167084 -7.85557556 69.12025452 C-9.02671355 69.12163721 -9.02671355 69.12163721 -10.22151089 69.12304783 C-12 69 -12 69 -13 68 C-13.07271741 65.64686445 -13.08370868 63.29166332 -13.0625 60.9375 C-13.05347656 59.64714844 -13.04445313 58.35679687 -13.03515625 57.02734375 C-13.02355469 56.02832031 -13.01195312 55.02929688 -13 54 C-12.34 54 -11.68 54 -11 54 C-10.81824219 52.77023437 -10.81824219 52.77023437 -10.6328125 51.515625 C-10.46523438 50.43796875 -10.29765625 49.3603125 -10.125 48.25 C-9.96257813 47.18265625 -9.80015625 46.1153125 -9.6328125 45.015625 C-9 42 -9 42 -7.98046875 40.109375 C-6.48215472 36.88591056 -6.46476402 33.49866402 -6.1875 30 C-5.23219939 19.70968131 -2.72027727 9.9466627 0 0 Z " fill="#FEFCCF" transform="translate(631,516)"/>
<path d="M0 0 C0.7355908 0.00276538 1.4711816 0.00553076 2.22906303 0.00837994 C3.49531013 0.00219395 3.49531013 0.00219395 4.78713799 -0.00411701 C5.71502129 0.00666882 6.64290459 0.01745464 7.59890556 0.02856731 C8.57455467 0.02812923 9.55020378 0.02769115 10.55541801 0.0272398 C13.79130645 0.02933554 17.02668148 0.05270378 20.26247978 0.07617474 C22.50164316 0.08176789 24.7408102 0.08603931 26.97997856 0.0890379 C32.88198746 0.10050871 38.78377593 0.12999521 44.68569756 0.16314983 C50.70475087 0.19380251 56.72383971 0.20753295 62.74294853 0.22265911 C74.55945179 0.2548627 86.37579123 0.30608608 98.19216728 0.36914349 C96.94011364 5.81219795 94.02482924 10.24666424 91.25466728 15.05664349 C90.42805595 16.51940716 90.42805595 16.51940716 89.58474541 18.01172161 C89.05429619 18.93791302 88.52384697 19.86410442 87.97732353 20.81836224 C87.49142754 21.66745159 87.00553154 22.51654095 86.50491142 23.39136028 C85.19216728 25.36914349 85.19216728 25.36914349 83.19216728 26.36914349 C83.19216728 25.04914349 83.19216728 23.72914349 83.19216728 22.36914349 C83.85216728 22.36914349 84.51216728 22.36914349 85.19216728 22.36914349 C85.27466728 21.19351849 85.35716728 20.01789349 85.44216728 18.80664349 C85.99061159 14.21444564 87.70086045 11.22665084 90.19216728 7.36914349 C90.85216728 7.36914349 91.51216728 7.36914349 92.19216728 7.36914349 C92.52216728 6.04914349 92.85216728 4.72914349 93.19216728 3.36914349 C61.18216728 3.36914349 29.17216728 3.36914349 -3.80783272 3.36914349 C-1.80783272 0.36914349 -1.80783272 0.36914349 0 0 Z " fill="#252521" transform="translate(591.8078327178955,264.63085651397705)"/>
<path d="M0 0 C0.495 1.98 0.495 1.98 1 4 C-39.26 4 -79.52 4 -121 4 C-121.33 6.64 -121.66 9.28 -122 12 C-122.49150868 14.50593028 -123.01106848 17.00657051 -123.5625 19.5 C-123.96662109 21.34078125 -123.96662109 21.34078125 -124.37890625 23.21875 C-124.68634766 24.59546875 -124.68634766 24.59546875 -125 26 C-125.33 26 -125.66 26 -126 26 C-126.41231921 18.02849523 -125.04295348 10.70606287 -123 3 C-121.10685238 1.10685238 -117.79244879 1.77774765 -115.2734375 1.71875 C-114.53447739 1.70065781 -113.79551727 1.68256561 -113.03416443 1.66392517 C-110.48120404 1.60371132 -107.92814791 1.55161723 -105.375 1.5 C-104.48670502 1.48043243 -103.59841003 1.46086487 -102.68319702 1.44070435 C-68.4612347 0.68776518 -34.2275583 0.39452788 0 0 Z " fill="#EACD4F" transform="translate(868,461)"/>
<path d="M0 0 C40.26 0 80.52 0 122 0 C122 7.87474241 122 7.87474241 121.12963867 11.96289062 C120.93911423 12.87494263 120.74858978 13.78699463 120.55229187 14.72668457 C120.34296524 15.69344116 120.13363861 16.66019775 119.91796875 17.65625 C119.70312332 18.67618042 119.48827789 19.69611084 119.266922 20.74694824 C118.58037893 23.9994043 117.88423144 27.24971283 117.1875 30.5 C116.73045536 32.65350493 116.27406896 34.80714966 115.81835938 36.9609375 C115.15453146 40.09808157 114.4902787 43.23512498 113.82321167 46.37158203 C112.15228482 54.23566968 110.54500537 62.11020444 109 70 C108.67 70 108.34 70 108 70 C108.50993046 61.92312943 109.58040482 54.16459706 111.25 46.25 C111.57726074 44.65502686 111.57726074 44.65502686 111.91113281 43.02783203 C112.59939754 39.68349565 113.2981566 36.34151133 114 33 C114.69664719 29.67553035 115.39327924 26.35105864 116.08886719 23.02636719 C116.51882745 20.9769111 116.95161754 18.92804595 117.38769531 16.87988281 C117.58459961 15.94756836 117.78150391 15.01525391 117.984375 14.0546875 C118.24299316 12.84014893 118.24299316 12.84014893 118.50683594 11.60107422 C119.11016991 8.41893556 119.5419603 5.2062779 120 2 C80.73 2 41.46 2 1 2 C0.67 1.34 0.34 0.68 0 0 Z " fill="#EACB52" transform="translate(761,390)"/>
<path d="M0 0 C39.93 0 79.86 0 121 0 C121 0.33 121 0.66 121 1 C81.73 1.33 42.46 1.66 2 2 C1.67 6.95 1.34 11.9 1 17 C-0.5 21.3125 -0.5 21.3125 -2 24 C-3.33764063 26.67528126 -3.29941479 29.01987683 -3.5 32 C-3.88888889 37.77777778 -3.88888889 37.77777778 -5 40 C-5.154636 41.72676868 -5.2747343 43.45672296 -5.375 45.1875 C-5.77811273 50.03744998 -6.90806493 53.57475274 -9 58 C-10.07923607 61.31095952 -11.04959931 64.65000608 -12 68 C-13.33438263 63.58199598 -12.41497193 59.86358023 -11.5 55.4375 C-11.23630615 54.11165894 -11.23630615 54.11165894 -10.96728516 52.7590332 C-10.55900584 50.71166761 -10.14673797 48.66509515 -9.73144531 46.61914062 C-8.88917502 42.45164571 -8.06528864 38.28068835 -7.2421875 34.109375 C-6.62064453 30.96858066 -5.99794471 27.82801658 -5.375 24.6875 C-5.14744019 23.53832596 -5.14744019 23.53832596 -4.9152832 22.36593628 C-4.47431233 20.14326342 -4.03052348 17.92117099 -3.5859375 15.69921875 C-3.3286084 14.40846436 -3.0712793 13.11770996 -2.80615234 11.7878418 C-1.96536029 7.83723954 -0.97962146 3.91848584 0 0 Z " fill="#FEFBC7" transform="translate(747,465)"/>
<path d="M0 0 C1.37648516 3.80437068 0.65006527 6.73312884 -0.1796875 10.62890625 C-0.58380859 12.55186523 -0.58380859 12.55186523 -0.99609375 14.51367188 C-1.28902631 15.8632891 -1.58199545 17.2128984 -1.875 18.5625 C-2.16092215 19.91585404 -2.44608664 21.26936839 -2.73046875 22.62304688 C-4.81902306 32.45706917 -4.81902306 32.45706917 -6 36 C-50.88 36 -95.76 36 -142 36 C-142 35.67 -142 35.34 -142 35 C-97.78 35 -53.56 35 -8 35 C-8 32.36 -8 29.72 -8 27 C-7.34 27 -6.68 27 -6 27 C-6.03480469 26.16597656 -6.06960938 25.33195312 -6.10546875 24.47265625 C-6.27964644 17.23184082 -5.7316536 11.71531509 -3 5 C-2.34 5 -1.68 5 -1 5 C-0.67 3.35 -0.34 1.7 0 0 Z " fill="#E2C54F" transform="translate(913,303)"/>
<path d="M0 0 C0.33 0 0.66 0 1 0 C1 3.96 1 7.92 1 12 C50.5 12.495 50.5 12.495 101 13 C101.33 11.35 101.66 9.7 102 8 C102.33 8 102.66 8 103 8 C102.67 10.31 102.34 12.62 102 15 C67.68 15 33.36 15 -2 15 C-1.34 10.05 -0.68 5.1 0 0 Z " fill="#E6CE5D" transform="translate(622,568)"/>
<path d="M0 0 C0.33 0 0.66 0 1 0 C1.53824938 15.48962114 1.53824938 15.48962114 -2 22 C-3.24893117 28.24465583 -3.54627567 34.64785943 -4 41 C54.41 41.495 54.41 41.495 114 42 C114 42.33 114 42.66 114 43 C73.74 43 33.48 43 -8 43 C-5.69030391 25.67727931 -5.69030391 25.67727931 -4 17.5625 C-3.835 16.74330078 -3.67 15.92410156 -3.5 15.08007812 C-2.46684409 10.01519271 -1.2874697 5.006188 0 0 Z " fill="#FEF8B5" transform="translate(769,347)"/>
<path d="M0 0 C3.62601485 0.2637863 7.2516162 0.44368603 10.8828125 0.62109375 C14 1 14 1 16 3 C15.9765625 5.8203125 15.9765625 5.8203125 15.625 9.125 C15.51414062 10.22070312 15.40328125 11.31640625 15.2890625 12.4453125 C15.19367188 13.28835938 15.09828125 14.13140625 15 15 C14.67 15 14.34 15 14 15 C13.505 9.06 13.505 9.06 13 3 C11.6544252 2.98969254 10.3088504 2.97938507 8.92250061 2.96876526 C-3.77477337 2.87089592 -16.47199983 2.76814941 -29.16919613 2.66066074 C-35.69652104 2.60555925 -42.22385052 2.5521601 -48.7512207 2.50268555 C-55.05360735 2.45485307 -61.35594196 2.40250424 -67.65826607 2.34705925 C-70.05952211 2.326721 -72.46079238 2.30799429 -74.8620739 2.29092598 C-78.23223873 2.26669221 -81.6023069 2.23666481 -84.97241211 2.20532227 C-85.95928513 2.1995668 -86.94615814 2.19381134 -87.9629364 2.18788147 C-93.7128154 2.12732889 -99.29515192 1.72930446 -105 1 C-105 0.67 -105 0.34 -105 0 C-104.25304367 0.00294571 -103.50608734 0.00589142 -102.73649597 0.00892639 C-87.08834709 0.06151912 -71.44705601 0.00251751 -55.80078125 -0.25390625 C-54.66376581 -0.27225084 -54.66376581 -0.27225084 -53.50378036 -0.29096603 C-46.50445365 -0.40426843 -39.50522934 -0.52309823 -32.50610352 -0.64819336 C-28.61251944 -0.71751606 -24.71887852 -0.7817166 -20.82515526 -0.84269524 C-19.36310644 -0.86663072 -17.90108849 -0.8925423 -16.43911171 -0.92053413 C-14.42214059 -0.959082 -12.4050383 -0.990573 -10.38793945 -1.02172852 C-9.24678177 -1.04171402 -8.10562408 -1.06169952 -6.92988586 -1.08229065 C-4.38714906 -1.01087372 -2.42263552 -0.68717802 0 0 Z " fill="#FEFEE5" transform="translate(870,387)"/>
<path d="M0 0 C1.05998776 3.27322477 0.91235179 5.52129108 0.21484375 8.87158203 C-0.08206863 10.32989693 -0.08206863 10.32989693 -0.38497925 11.81767273 C-0.6085611 12.87041885 -0.83214294 13.92316498 -1.0625 15.0078125 C-1.28938507 16.10990555 -1.51627014 17.2119986 -1.75003052 18.3474884 C-2.49193031 21.94172167 -3.24594897 25.53329829 -4 29.125 C-4.50979246 31.58519379 -5.01874198 34.04556241 -5.52685547 36.50610352 C-6.78047396 42.56836346 -8.04315214 48.6286905 -9.30895996 54.68841553 C-10.77774716 61.72710015 -12.23245632 68.76869047 -13.68505859 75.81072998 C-14.11426414 77.8856006 -14.54698149 79.95971165 -14.98046875 82.03369141 C-15.23699219 83.26909668 -15.49351562 84.50450195 -15.7578125 85.77734375 C-15.9758252 86.82140381 -16.19383789 87.86546387 -16.41845703 88.94116211 C-17.05371921 92.28255584 -17.54249457 95.6300626 -18 99 C-18.33 99 -18.66 99 -19 99 C-19.21420679 93.29971921 -18.95750788 88.24424458 -17.56640625 82.71875 C-16.82295861 79.15020133 -16.4509297 75.55771344 -16.0625 71.9375 C-14.62391905 58.90531018 -12.32858308 46.2460641 -7.875 33.875 C-7.12058454 31.39620634 -6.73164186 29.24427156 -6.4375 26.6875 C-6 23 -6 23 -5 22 C-4.7124428 18.76840481 -4.55114997 15.53652278 -4.37890625 12.296875 C-3.85016693 7.69629779 -2.11062768 4.07049624 0 0 Z " fill="#FEFACD" transform="translate(677,289)"/>
<path d="M0 0 C0.33 0 0.66 0 1 0 C0.307903 7.36439778 -0.98134551 14.51984088 -2.43359375 21.76953125 C-2.67159195 22.9680925 -2.90959015 24.16665375 -3.15480042 25.40153503 C-3.65634011 27.92066784 -4.15986928 30.43940529 -4.6652832 32.95776367 C-5.43823569 36.81617242 -6.2008787 40.67652692 -6.96289062 44.53710938 C-7.45250172 46.98970784 -7.94271511 49.44218616 -8.43359375 51.89453125 C-8.6607457 53.04871048 -8.88789764 54.20288971 -9.12193298 55.39204407 C-9.3387825 56.46383408 -9.55563202 57.53562408 -9.77905273 58.63989258 C-9.96700912 59.58093338 -10.15496552 60.52197418 -10.34861755 61.49153137 C-10.97145238 63.89006335 -11.8015147 65.83967753 -13 68 C-13.1828118 61.78439882 -12.48723077 55.78412053 -11.6875 49.625 C-11.56955078 48.635 -11.45160156 47.645 -11.33007812 46.625 C-10.63078241 41.18842411 -9.56466298 36.27908172 -7.70678711 31.12646484 C-6.552247 27.65287439 -6.00495772 24.10803336 -5.4375 20.5 C-5.19160671 19.02188468 -4.94422306 17.54401647 -4.6953125 16.06640625 C-4.57833008 15.36789551 -4.46134766 14.66938477 -4.34082031 13.94970703 C-3.69699646 10.26662876 -2.85980091 6.63761921 -2 3 C-1.34 3 -0.68 3 0 3 C0 2.01 0 1.02 0 0 Z " fill="#FEFAC8" transform="translate(645,448)"/>
<path d="M0 0 C0.33 0 0.66 0 1 0 C1.47474159 11.63116892 0.69284375 20.89306225 -3 32 C-3.57569743 34.35193462 -4.07724401 36.70793613 -4.5703125 39.078125 C-4.95619177 40.80405773 -5.47060402 42.5000503 -6 44.1875 C-7.28998793 49.10557898 -7.84275218 54.04120157 -8.4375 59.0859375 C-8.623125 60.04757812 -8.80875 61.00921875 -9 62 C-9.99 62.495 -9.99 62.495 -11 63 C-10.57038062 51.42175781 -8.31874326 40.31951161 -6 29 C-5.74460449 27.75138184 -5.48920898 26.50276367 -5.22607422 25.21630859 C-3.50301705 16.80690405 -1.75811759 8.40214613 0 0 Z " fill="#EAC94D" transform="translate(637,492)"/>
<path d="M0 0 C28.71 0 57.42 0 87 0 C87 1.98 87 3.96 87 6 C86.67 6 86.34 6 86 6 C86 4.35 86 2.7 86 1 C66.53 1.33 47.06 1.66 27 2 C27 2.33 27 2.66 27 3 C17.76 3 8.52 3 -1 3 C-0.67 2.01 -0.34 1.02 0 0 Z " fill="#0C0C09" transform="translate(361,266)"/>
<path d="M0 0 C1.02029502 3.06088507 1.01234102 3.95882776 0.42675781 6.98974609 C0.27619934 7.78843109 0.12564087 8.58711609 -0.02947998 9.41000366 C-0.20022034 10.27243683 -0.37096069 11.13487 -0.546875 12.0234375 C-0.71874329 12.92059479 -0.89061157 13.81775208 -1.06768799 14.74209595 C-1.43416592 16.64759539 -1.80428448 18.55239766 -2.17773438 20.45654297 C-2.74072136 23.32768053 -3.29329311 26.20065556 -3.84375 29.07421875 C-5.7110498 38.76281187 -7.66736517 48.4110281 -10 58 C-10.33 58 -10.66 58 -11 58 C-11.22361459 41.47736626 -11.22361459 41.47736626 -9.0859375 35.40234375 C-7.72962813 31.15289963 -6.87005846 26.87068429 -6 22.5 C-4.94470122 17.19877255 -3.82155748 12.10337179 -2 7 C-1.61482578 5.71133069 -1.23765253 4.4201876 -0.875 3.125 C-0.58625 2.09375 -0.2975 1.0625 0 0 Z " fill="#FEF7B7" transform="translate(657,388)"/>
<path d="M0 0 C1.18571594 -0.00043808 1.18571594 -0.00043808 2.39538574 -0.00088501 C5.00890062 0.00050864 7.62213061 0.0160714 10.2355957 0.03173828 C12.04734644 0.03546829 13.85909919 0.03831532 15.67085266 0.04031372 C20.44008958 0.04795114 25.20920475 0.06760058 29.97839355 0.08972168 C34.84470981 0.11017775 39.71104573 0.11931493 44.57739258 0.12939453 C54.12627421 0.15084636 63.67506546 0.18498364 73.22387695 0.22705078 C73.22387695 0.55705078 73.22387695 0.88705078 73.22387695 1.22705078 C67.92464647 1.37517081 62.62529266 1.51717494 57.32574463 1.6534729 C55.42789615 1.70243719 53.53006856 1.7522186 51.63226318 1.80282593 C41.2714508 2.07540916 30.92426281 2.27639982 20.55981445 2.15283203 C19.31542603 2.14042984 19.31542603 2.14042984 18.04589844 2.1277771 C14.11226508 2.08656956 10.18093211 2.02360689 6.24829102 1.92626953 C4.83651724 1.90727559 3.42473349 1.88900449 2.01293945 1.87158203 C0.79300293 1.84427002 -0.42693359 1.81695801 -1.68383789 1.78881836 C-5.39600901 2.31489977 -6.38612432 3.4476394 -8.77612305 6.22705078 C-9.43612305 6.22705078 -10.09612305 6.22705078 -10.77612305 6.22705078 C-10.77612305 9.52705078 -10.77612305 12.82705078 -10.77612305 16.22705078 C-11.10612305 16.22705078 -11.43612305 16.22705078 -11.77612305 16.22705078 C-11.80318033 14.45630161 -11.82254499 12.68543367 -11.83862305 10.91455078 C-11.85022461 9.92841797 -11.86182617 8.94228516 -11.8737793 7.92626953 C-11.77612305 5.22705078 -11.77612305 5.22705078 -10.77612305 2.22705078 C-7.07490874 -0.24042543 -4.27887245 -0.04120877 0 0 Z " fill="#FEFEE7" transform="translate(781.776123046875,340.77294921875)"/>
<path d="M0 0 C0.33 0 0.66 0 1 0 C0.52879104 10.06031135 -1.5982946 19.83524861 -3.54638672 29.6875 C-4.05636834 32.28736327 -4.53599775 34.89155492 -5 37.5 C-5.65228977 41.11144124 -6.32134604 44.71912246 -7.0078125 48.32421875 C-7.19085937 49.28585937 -7.37390625 50.2475 -7.5625 51.23828125 C-8.37388189 55.49240158 -9.18611551 59.74635772 -10 64 C-10.33 64 -10.66 64 -11 64 C-11.4932594 46.27006495 -11.4932594 46.27006495 -7.98046875 40.25390625 C-6.54235171 36.94795593 -6.46904999 33.55274664 -6.1875 30 C-5.23219939 19.70968131 -2.72027727 9.9466627 0 0 Z " fill="#FDF5B7" transform="translate(631,516)"/>
<path d="M0 0 C1.05384048 3.28496995 0.92859818 5.69178696 0.36328125 9.078125 C0.11843994 10.55998291 0.11843994 10.55998291 -0.13134766 12.07177734 C-0.31487793 13.12059082 -0.4984082 14.1694043 -0.6875 15.25 C-0.87103027 16.33104004 -1.05456055 17.41208008 -1.24365234 18.52587891 C-2.29649923 24.55304586 -3.52133464 30.47170754 -5.125 36.375 C-6.86078317 42.83859723 -7.73370567 49.14354272 -8.22900391 55.80029297 C-8.64926688 60.76755215 -9.82103892 64.50626184 -12 69 C-12.33 69 -12.66 69 -13 69 C-12.85046875 67.98035156 -12.7009375 66.96070313 -12.546875 65.91015625 C-12.21633212 63.54677469 -11.90766111 61.17999054 -11.640625 58.80859375 C-10.51681136 49.11008202 -8.46396498 39.75371967 -6.21875 30.26171875 C-4.22630139 21.786179 -2.69466874 13.3064388 -1.46484375 4.6875 C-1 2 -1 2 0 0 Z " fill="#FEFEEA" transform="translate(634,492)"/>
<path d="M0 0 C1.94369031 6.31699352 0.93594169 10.24103745 -2 16 C-4.19283888 23.56455827 -4.89634965 31.46776347 -5.76757812 39.26757812 C-5.88423828 40.20666016 -6.00089844 41.14574219 -6.12109375 42.11328125 C-6.2183374 42.95673096 -6.31558105 43.80018066 -6.41577148 44.66918945 C-7.08935716 47.3564951 -8.21625352 48.90826419 -10 51 C-9.55962681 46.44947699 -9.04860542 42.02715052 -8.0625 37.5625 C-7.04229108 32.73351114 -6.5103176 27.90276586 -6 23 C-4.08534323 4.96474954 -4.08534323 4.96474954 0 0 Z " fill="#EDC531" transform="translate(676,308)"/>
<path d="M0 0 C1.074365 3.3005227 0.9008598 5.57365923 0.19555664 8.95214844 C-0.00472641 9.93286316 -0.20500946 10.91357788 -0.41136169 11.92401123 C-0.63526077 12.97518127 -0.85915985 14.02635132 -1.08984375 15.109375 C-1.31321915 16.19132141 -1.53659454 17.27326782 -1.76673889 18.38800049 C-2.48216301 21.84375521 -3.20967244 25.29683857 -3.9375 28.75 C-4.42462608 31.09228211 -4.91096397 33.43472828 -5.39648438 35.77734375 C-6.58851636 41.5201644 -7.79048083 47.26083845 -9 53 C-9.33 53 -9.66 53 -10 53 C-10.36248387 46.05910509 -9.76170138 40.23664725 -7.73046875 33.58984375 C-7.04524545 31.16041567 -6.64737528 28.87995955 -6.375 26.375 C-6 23 -6 23 -5 22 C-4.7124428 18.76840481 -4.55114997 15.53652278 -4.37890625 12.296875 C-3.85016693 7.69629779 -2.11062768 4.07049624 0 0 Z " fill="#FDF4AE" transform="translate(677,289)"/>
<path d="M0 0 C0.33 0 0.66 0 1 0 C1.20647055 4.85205788 0.64518425 8.9170203 -0.5 13.625 C-1.00742292 16.03525889 -1.24869931 18.35809108 -1.4375 20.8125 C-2.01818627 27.44891452 -3.40571596 34.21123088 -5.99609375 40.3671875 C-7.2943922 43.77206359 -7.95569625 47.24401826 -8.625 50.8125 C-8.7590625 51.50537109 -8.893125 52.19824219 -9.03125 52.91210938 C-9.35858288 54.60722609 -9.67990594 56.30350146 -10 58 C-10.33 58 -10.66 58 -11 58 C-10.2555439 49.1448906 -9.17063012 40.30338264 -6.9375 31.6875 C-5.92633932 27.98528722 -5.92633932 27.98528722 -5.4375 24.0625 C-5 21 -5 21 -4 20 C-3.83957845 18.33636912 -3.72232982 16.66851122 -3.625 15 C-3.1969297 9.63157733 -1.96165372 4.99666513 0 0 Z " fill="#FEFEE7" transform="translate(660,362)"/>
<path d="M0 0 C0.33 0 0.66 0 1 0 C0.86105852 3.10451549 0.712657 6.20850835 0.5625 9.3125 C0.52318359 10.19357422 0.48386719 11.07464844 0.44335938 11.98242188 C0.40146484 12.82998047 0.35957031 13.67753906 0.31640625 14.55078125 C0.26141968 15.72120972 0.26141968 15.72120972 0.20532227 16.9152832 C0 19 0 19 -1 22 C-1.10185018 23.62394458 -1.18246213 25.24926691 -1.25 26.875 C-1.7940661 33.76343016 -4.28702731 39.70310028 -7 46 C-7.95150568 42.94373498 -7.99205341 40.82094973 -7.37915039 37.69042969 C-7.21890884 36.84986023 -7.0586673 36.00929077 -6.89356995 35.14324951 C-6.71341843 34.24519592 -6.53326691 33.34714233 -6.34765625 32.421875 C-6.16867294 31.4953009 -5.98968964 30.56872681 -5.80528259 29.61407471 C-5.23232153 26.657767 -4.64757254 23.70393212 -4.0625 20.75 C-3.67174695 18.74494334 -3.28176365 16.73973651 -2.89257812 14.734375 C-1.93730561 9.82113005 -0.97145534 4.91006977 0 0 Z " fill="#FDF9CA" transform="translate(733,533)"/>
<path d="M0 0 C1.96044647 5.44503079 -0.17718603 11.17211923 -1.32324219 16.63696289 C-1.75009769 18.68796938 -2.15304726 20.74275415 -2.5546875 22.79882812 C-2.82023438 24.08595703 -3.08578125 25.37308594 -3.359375 26.69921875 C-3.60139648 27.88346436 -3.84341797 29.06770996 -4.09277344 30.2878418 C-4.3921582 31.182854 -4.69154297 32.07786621 -5 33 C-6.485 33.495 -6.485 33.495 -8 34 C-8 31.69 -8 29.38 -8 27 C-7.34 27 -6.68 27 -6 27 C-6.03480469 26.16597656 -6.06960938 25.33195312 -6.10546875 24.47265625 C-6.27964644 17.23184082 -5.7316536 11.71531509 -3 5 C-2.34 5 -1.68 5 -1 5 C-0.67 3.35 -0.34 1.7 0 0 Z " fill="#F4C929" transform="translate(913,303)"/>
<path d="M0 0 C0.33 0 0.66 0 1 0 C1.05506505 1.52040718 1.09326375 3.04142704 1.125 4.5625 C1.14820313 5.40941406 1.17140625 6.25632812 1.1953125 7.12890625 C0.95781315 10.62014674 -0.03379189 13.63564947 -1 17 C-1.59269589 20.29971368 -2.0465175 23.61611445 -2.5 26.9375 C-3.34262458 33.08125175 -4.3890389 39.00750248 -6 45 C-6.66 45 -7.32 45 -8 45 C-8.33 45.66 -8.66 46.32 -9 47 C-8.3583818 37.08037899 -6.08676815 27.55269993 -3.9375 17.875 C-3.55612222 16.13813458 -3.17525845 14.40115622 -2.79492188 12.6640625 C-1.8692059 8.44138199 -0.93653477 4.22029363 0 0 Z " fill="#FCF5B7" transform="translate(921,270)"/>
<path d="M0 0 C0.33 0 0.66 0 1 0 C1.53824938 15.48962114 1.53824938 15.48962114 -2 22 C-3.02972443 26.06884165 -3.28904422 30.13253311 -3.5625 34.3125 C-3.64628906 35.56675781 -3.73007812 36.82101562 -3.81640625 38.11328125 C-3.87699219 39.06589844 -3.93757812 40.01851563 -4 41 C-1.03 41 1.94 41 5 41 C5 41.33 5 41.66 5 42 C1.37 42 -2.26 42 -6 42 C-5.51607105 27.58225462 -3.78256683 13.96640061 0 0 Z " fill="#FEFCD2" transform="translate(769,347)"/>
<path d="M0 0 C1.55932236 3.11864473 0.40757779 5.52535466 -0.328125 8.88671875 C-0.47779724 9.58078323 -0.62746948 10.27484772 -0.78167725 10.98994446 C-1.26473468 13.22390558 -1.75704374 15.4557044 -2.25 17.6875 C-2.72492766 19.86493902 -3.19790918 22.04279335 -3.67053223 24.22073364 C-3.98348667 25.66269297 -4.2972053 27.10448665 -4.61169434 28.54611206 C-6.1625679 35.68015067 -7.59430109 42.83604005 -9 50 C-9.33 50 -9.66 50 -10 50 C-9.40477081 39.27021066 -8.40493686 29.21481057 -5 19 C-4.74704832 17.00800553 -4.4948996 15.01570157 -4.27734375 13.01953125 C-3.64292673 8.39990307 -2.27677919 4.06567713 0 0 Z " fill="#E8C84E" transform="translate(770,340)"/>
<path d="M0 0 C1 3 1 3 0.04370117 5.25244141 C-0.45154053 6.11015137 -0.94678223 6.96786133 -1.45703125 7.8515625 C-1.99263672 8.78484375 -2.52824219 9.718125 -3.08007812 10.6796875 C-3.65177734 11.65164063 -4.22347656 12.62359375 -4.8125 13.625 C-5.37259766 14.6046875 -5.93269531 15.584375 -6.50976562 16.59375 C-10.7222163 23.86110815 -10.7222163 23.86110815 -13 25 C-13 23.68 -13 22.36 -13 21 C-12.34 21 -11.68 21 -11 21 C-10.9175 19.824375 -10.835 18.64875 -10.75 17.4375 C-10.20155569 12.84530215 -8.49130683 9.85750735 -6 6 C-5.34 6 -4.68 6 -4 6 C-3.566875 5.071875 -3.566875 5.071875 -3.125 4.125 C-2 2 -2 2 0 0 Z " fill="#221805" transform="translate(688,266)"/>
<path d="M0 0 C0.33 0.99 0.66 1.98 1 3 C0.07421875 4.6640625 0.07421875 4.6640625 -1.3125 6.625 C-4.43949319 11.85388393 -4.86192939 16.925883 -5.27856445 22.88330078 C-5.64471201 27.55690893 -6.5895275 30.86310801 -9 35 C-10.47363323 31.08657666 -9.51762693 28.04007305 -8.5625 24.0625 C-7.36768946 19.30557418 -7.36768946 19.30557418 -7.12109375 14.453125 C-6.94550006 10.89593668 -5.34975177 8.69334663 -3.5 5.6875 C-2.8503125 4.61886719 -2.200625 3.55023438 -1.53125 2.44921875 C-0.77328125 1.23685547 -0.77328125 1.23685547 0 0 Z " fill="#E3C453" transform="translate(684,276)"/>
<path d="M0 0 C0.33 0 0.66 0 1 0 C1.55353075 19.00455581 1.55353075 19.00455581 -2 27 C-2.33 27 -2.66 27 -3 27 C-3.47545004 17.54382689 -2.10435896 9.16899261 0 0 Z " fill="#ECC83F" transform="translate(637,492)"/>
<path d="M0 0 C0.33 0 0.66 0 1 0 C0.39371194 8.84514323 -1.3338253 17.4487468 -3.0625 26.125 C-3.34742868 27.57283339 -3.63193702 29.02074957 -3.91601562 30.46875 C-4.60583869 33.98013338 -5.30132575 37.49036568 -6 41 C-6.33 41 -6.66 41 -7 41 C-7.05418326 38.91695462 -7.09287551 36.83350232 -7.125 34.75 C-7.14820313 33.58984375 -7.17140625 32.4296875 -7.1953125 31.234375 C-6.99953267 27.99226099 -6.41368497 26.80310349 -5 24 C-4.60281204 22.47093533 -4.26040888 20.9269144 -3.96484375 19.375 C-3.79533203 18.50359375 -3.62582031 17.6321875 -3.45117188 16.734375 C-3.28166016 15.83203125 -3.11214844 14.9296875 -2.9375 14 C-2.59321567 12.20818564 -2.24819064 10.41651341 -1.90234375 8.625 C-1.75273193 7.83351563 -1.60312012 7.04203125 -1.44897461 6.2265625 C-1.02655921 4.13171287 -0.53625987 2.06830444 0 0 Z " fill="#E6C951" transform="translate(732,534)"/>
<path d="M0 0 C1.8274753 5.49390399 0.10415171 11.1223366 -0.8125 16.6875 C-0.99103516 17.85345703 -1.16957031 19.01941406 -1.35351562 20.22070312 C-1.53205078 21.32736328 -1.71058594 22.43402344 -1.89453125 23.57421875 C-2.05800049 24.59088623 -2.22146973 25.60755371 -2.38989258 26.6550293 C-2.59122803 27.42886963 -2.79256348 28.20270996 -3 29 C-3.66 29.33 -4.32 29.66 -5 30 C-5.33349507 19.05024519 -3.63992285 10.26458243 0 0 Z " fill="#F3C92D" transform="translate(872,432)"/>
<path d="M0 0 C0.66 0 1.32 0 2 0 C1.71542568 2.52181288 1.42254942 5.04221196 1.125 7.5625 C1.04636719 8.26697266 0.96773437 8.97144531 0.88671875 9.69726562 C0.33366097 14.3131709 -0.61195836 18.56176603 -2 23 C-2.66 23 -3.32 23 -4 23 C-3.85845864 20.43719792 -3.71191438 17.87484515 -3.5625 15.3125 C-3.52318359 14.59126953 -3.48386719 13.87003906 -3.44335938 13.12695312 C-3.21814322 9.33292718 -2.87160695 5.71348508 -2 2 C-1.34 2 -0.68 2 0 2 C0 1.34 0 0.68 0 0 Z " fill="#FEFCD9" transform="translate(913,315)"/>
<path d="M0 0 C0.33 0 0.66 0 1 0 C0.63994253 10.36717202 -0.22311461 19.9578044 -3 30 C-3.33 30 -3.66 30 -4 30 C-4.12353438 20.87218175 -4.08828212 12.68579346 -1 4 C-0.65023242 2.67088318 -0.30903983 1.33917261 0 0 Z " fill="#FEFAC8" transform="translate(650,416)"/>
<path d="M0 0 C0.33 0 0.66 0 1 0 C0.33951685 6.77864289 -0.74691622 13.38230956 -2.0625 20.0625 C-2.24876953 21.02349609 -2.43503906 21.98449219 -2.62695312 22.97460938 C-3.08145562 25.31704531 -3.53918902 27.65879844 -4 30 C-4.33 30 -4.66 30 -5 30 C-4.22095672 10.99544419 -4.22095672 10.99544419 -2 3 C-1.34 3 -0.68 3 0 3 C0 2.01 0 1.02 0 0 Z " fill="#FEF8BD" transform="translate(645,448)"/>
<path d="M0 0 C0.33 0 0.66 0 1 0 C1.05451714 2.04136395 1.09302485 4.08315856 1.125 6.125 C1.14820313 7.26195312 1.17140625 8.39890625 1.1953125 9.5703125 C0.94543074 13.95823615 0.30237471 17.49725995 -2.625 20.875 C-3.305625 21.431875 -3.305625 21.431875 -4 22 C-3.3622098 14.47407567 -1.80110167 7.32901118 0 0 Z " fill="#ECC63B" transform="translate(646,450)"/>
<path d="M0 0 C0.33 0 0.66 0 1 0 C0.75274981 11.01499591 -0.0521526 20.60706219 -4 31 C-5.03682873 27.7709132 -4.92863972 25.53394199 -4.2578125 22.2265625 C-3.98904297 20.8653125 -3.98904297 20.8653125 -3.71484375 19.4765625 C-3.52019531 18.53554688 -3.32554687 17.59453125 -3.125 16.625 C-2.75210963 14.76311981 -2.37970111 12.90114304 -2.0078125 11.0390625 C-1.8315332 10.16797852 -1.65525391 9.29689453 -1.47363281 8.39941406 C-0.92273763 5.60859044 -0.44172107 2.81009789 0 0 Z " fill="#FCF4B4" transform="translate(739,502)"/>
<path d="M0 0 C1.49968006 4.77195492 0.28736711 8.72378895 -0.75 13.5 C-0.92015625 14.35464844 -1.0903125 15.20929688 -1.265625 16.08984375 C-2.90001788 23.79312194 -2.90001788 23.79312194 -6 27 C-5.71722382 24.10304831 -5.42412587 21.2077705 -5.125 18.3125 C-5.04636719 17.49587891 -4.96773437 16.67925781 -4.88671875 15.83789062 C-4.26180611 9.90122058 -2.74907927 5.30179573 0 0 Z " fill="#FCF6C1" transform="translate(677,289)"/>
<path d="M0 0 C4.29 0 8.58 0 13 0 C13 0.33 13 0.66 13 1 C12.24074219 1.00257813 11.48148438 1.00515625 10.69921875 1.0078125 C7.69925667 1.12454254 4.93078784 1.34100629 2 2 C-0.27426861 4.54795907 -0.27426861 4.54795907 -1 8 C-1.19851563 8.64453125 -1.39703125 9.2890625 -1.6015625 9.953125 C-2.11064764 11.62292424 -2.56072792 13.31049201 -3 15 C-3.33 15 -3.66 15 -4 15 C-3.67 10.71 -3.34 6.42 -3 2 C-2.34 2 -1.68 2 -1 2 C-0.67 1.34 -0.34 0.68 0 0 Z " fill="#F4C729" transform="translate(770,336)"/>
<path d="M0 0 C1.04318738 3.23680571 0.92287835 5.45548417 0.22265625 8.765625 C0.03896484 9.65507812 -0.14472656 10.54453125 -0.33398438 11.4609375 C-0.53314453 12.38132812 -0.73230469 13.30171875 -0.9375 14.25 C-1.13279297 15.18585938 -1.32808594 16.12171875 -1.52929688 17.0859375 C-2.01176705 19.39238027 -2.50224577 21.696816 -3 24 C-3.33 24 -3.66 24 -4 24 C-4.12086218 17.56744599 -3.82351864 11.38226945 -3 5 C-2.34 5 -1.68 5 -1 5 C-0.67 3.35 -0.34 1.7 0 0 Z " fill="#E7C749" transform="translate(913,303)"/>
<path d="M0 0 C0.33 0 0.66 0 1 0 C0.91244571 3.02213254 0.80548937 6.04152681 0.6875 9.0625 C0.66494141 9.91005859 0.64238281 10.75761719 0.61914062 11.63085938 C0.38626894 17.11392914 -0.51774114 21.09537592 -3 26 C-4.09964408 22.64283117 -3.88421538 20.24500139 -3.22265625 16.796875 C-3.03896484 15.8171875 -2.85527344 14.8375 -2.66601562 13.828125 C-2.46685547 12.81234375 -2.26769531 11.7965625 -2.0625 10.75 C-1.86720703 9.71875 -1.67191406 8.6875 -1.47070312 7.625 C-0.98796618 5.08180048 -0.49747983 2.54034954 0 0 Z " fill="#FDF5B0" transform="translate(733,533)"/>
<path d="M0 0 C0.66 0.99 1.32 1.98 2 3 C-0.97 8.28 -3.94 13.56 -7 19 C-7.33 19 -7.66 19 -8 19 C-7.83112554 11.56952384 -3.86815652 6.15067185 0 0 Z " fill="#252521" transform="translate(634,358)"/>
<path d="M0 0 C0.33 0 0.66 0 1 0 C1.02690104 2.79173055 1.04679053 5.58320348 1.0625 8.375 C1.07087891 9.1690625 1.07925781 9.963125 1.08789062 10.78125 C1.11328125 16.7734375 1.11328125 16.7734375 0 19 C-0.66 19 -1.32 19 -2 19 C-2.33 19.66 -2.66 20.32 -3 21 C-2.41523944 13.90593106 -1.36766005 6.98436101 0 0 Z " fill="#FDF7C4" transform="translate(883,390)"/>
<path d="M0 0 C0.33 0 0.66 0 1 0 C1.125 7.625 1.125 7.625 0 11 C-0.22325814 13.05893621 -0.40705759 15.12233653 -0.5625 17.1875 C-0.64628906 18.27417969 -0.73007812 19.36085938 -0.81640625 20.48046875 C-0.87699219 21.31191406 -0.93757812 22.14335938 -1 23 C-0.01 23.33 0.98 23.66 2 24 C0.35 24 -1.3 24 -3 24 C-2.88509088 21.31173136 -2.75836801 18.62486531 -2.625 15.9375 C-2.5940625 15.18533203 -2.563125 14.43316406 -2.53125 13.65820312 C-2.27941541 8.81038719 -1.50831635 4.61691957 0 0 Z " fill="#EDC129" transform="translate(625,556)"/>
<path d="M0 0 C0.33 0 0.66 0 1 0 C1.21544006 5.23115393 0.52370193 9.43785303 -1 14.4375 C-1.37125 15.67371094 -1.7425 16.90992188 -2.125 18.18359375 C-2.41375 19.11300781 -2.7025 20.04242188 -3 21 C-3.33 21 -3.66 21 -4 21 C-4.40566938 13.96839747 -3.07523451 7.72031901 -1 1 C-0.67 0.67 -0.34 0.34 0 0 Z " fill="#FDFDE4" transform="translate(670,313)"/>
<path d="M0 0 C0.33 0 0.66 0 1 0 C1.08139142 2.39652528 1.14067009 4.79025436 1.1875 7.1875 C1.21263672 7.86103516 1.23777344 8.53457031 1.26367188 9.22851562 C1.32923478 13.70864748 0.66743649 16.39440999 -2 20 C-3.31052767 15.69577494 -2.45785552 12.0629466 -1.5625 7.75 C-1.41490234 7.00492187 -1.26730469 6.25984375 -1.11523438 5.4921875 C-0.7511306 3.65992335 -0.37658591 1.82973947 0 0 Z " fill="#EBCA43" transform="translate(641,472)"/>
<path d="M0 0 C0.33 0 0.66 0 1 0 C1.33803134 17.57762951 1.33803134 17.57762951 -2 25 C-2.33 25 -2.66 25 -3 25 C-2.56891497 16.49174287 -2.01290353 8.30566989 0 0 Z " fill="#FCFDEA" transform="translate(920,281)"/>
<path d="M0 0 C1.1015625 3.75 1.1015625 3.75 0.1875 6 C-0.204375 6.66 -0.59625 7.32 -1 8 C-1.4640625 9.051875 -1.4640625 9.051875 -1.9375 10.125 C-3 12 -3 12 -6 14 C-6.33 13.34 -6.66 12.68 -7 12 C-5.56640625 9.1796875 -5.56640625 9.1796875 -3.5625 5.875 C-2.57443359 4.23144531 -2.57443359 4.23144531 -1.56640625 2.5546875 C-1.04949219 1.71164062 -0.53257812 0.86859375 0 0 Z " fill="#1E1F1C" transform="translate(529,372)"/>
<path d="M0 0 C0.88418936 2.93630048 1.03363132 5.15589734 0.625 8.1875 C0.30333015 10.6427775 -0.00729093 13.08352588 -0.22265625 15.55078125 C-0.29355469 16.35902344 -0.36445312 17.16726563 -0.4375 18 C-0.49808594 18.7425 -0.55867187 19.485 -0.62109375 20.25 C-0.74613281 20.8275 -0.87117187 21.405 -1 22 C-1.66 22.33 -2.32 22.66 -3 23 C-3.30660609 14.99417435 -2.54112905 7.62338715 0 0 Z " fill="#FDFEE1" transform="translate(736,528)"/>
<path d="M0 0 C0.33 0 0.66 0 1 0 C1.02712153 1.916588 1.04645097 3.8332873 1.0625 5.75 C1.07410156 6.81734375 1.08570313 7.8846875 1.09765625 8.984375 C1.01510087 11.53368501 0.74617558 13.57933591 0 16 C-0.66 16 -1.32 16 -2 16 C-2.33 16.66 -2.66 17.32 -3 18 C-2.51679152 11.7945858 -1.66681876 6.00054754 0 0 Z " fill="#FDF6B2" transform="translate(746,469)"/>
<path d="M0 0 C0.33 0 0.66 0 1 0 C1.054138 2.24973447 1.09285491 4.49984383 1.125 6.75 C1.14820313 8.00296875 1.17140625 9.2559375 1.1953125 10.546875 C1.01537302 13.72820492 0.68998582 15.36521896 -1 18 C-1.66 18 -2.32 18 -3 18 C-2.32418477 11.91766294 -1.26361972 5.98685848 0 0 Z " fill="#FCF4B4" transform="translate(876,425)"/>
<path d="M0 0 C1.0703125 1.84765625 1.0703125 1.84765625 2 4 C0.26415626 7.76099476 -2.36647983 10.82161359 -5 14 C-6 11 -6 11 -4.78515625 8.30078125 C-4.21667969 7.31464844 -3.64820313 6.32851563 -3.0625 5.3125 C-2.49660156 4.31863281 -1.93070313 3.32476562 -1.34765625 2.30078125 C-0.90292969 1.54152344 -0.45820312 0.78226562 0 0 Z " fill="#262623" transform="translate(581,279)"/>
<path d="M0 0 C0.33 0 0.66 0 1 0 C1.33278764 6.81598387 1.24201565 11.92122066 -2 18 C-3.51553092 14.02549507 -2.49888623 10.79518851 -1.5625 6.75 C-1.27503906 5.48671875 -0.98757813 4.2234375 -0.69140625 2.921875 C-0.46324219 1.95765625 -0.23507812 0.9934375 0 0 Z " fill="#FDF6B1" transform="translate(769,347)"/>
<path d="M0 0 C0.33 0 0.66 0 1 0 C0.67 5.61 0.34 11.22 0 17 C-0.66 17 -1.32 17 -2 17 C-2.33 17.66 -2.66 18.32 -3 19 C-2.37679879 12.56025419 -1.35991738 6.32427599 0 0 Z " fill="#FCF4B6" transform="translate(872,445)"/>
<path d="M0 0 C0.33 0 0.66 0 1 0 C1.22126178 2.45779976 1.42750395 4.91527648 1.625 7.375 C1.68945312 8.07367188 1.75390625 8.77234375 1.8203125 9.4921875 C1.96119739 11.32369111 1.98761659 13.16312748 2 15 C1.34 15.66 0.68 16.32 0 17 C-1.8198497 11.54045091 -1.37745568 5.50982274 0 0 Z " fill="#22231F" transform="translate(353,318)"/>
<path d="M0 0 C7.59 0 15.18 0 23 0 C23 0.33 23 0.66 23 1 C12.605 1.495 12.605 1.495 2 2 C1.67 2.66 1.34 3.32 1 4 C0.34 4 -0.32 4 -1 4 C-0.67 2.68 -0.34 1.36 0 0 Z " fill="#0E0F0B" transform="translate(588,268)"/>
<path d="M0 0 C1.13480527 3.60993172 1.10015767 6.9842327 1.0625 10.75 C1.05347656 11.92046875 1.04445313 13.0909375 1.03515625 14.296875 C1.02355469 15.18890625 1.01195312 16.0809375 1 17 C0.34 17 -0.32 17 -1 17 C-1.33 17.66 -1.66 18.32 -2 19 C-1.8595017 16.2079699 -1.71284617 13.41650204 -1.5625 10.625 C-1.52318359 9.8309375 -1.48386719 9.036875 -1.44335938 8.21875 C-1.11328125 2.2265625 -1.11328125 2.2265625 0 0 Z " fill="#F6C825" transform="translate(680,286)"/>
<path d="M0 0 C0.66 0.99 1.32 1.98 2 3 C0.35 5.64 -1.3 8.28 -3 11 C-3.66 10.67 -4.32 10.34 -5 10 C-4.49701212 5.59885603 -2.91227269 3.28804981 0 0 Z " fill="#21211E" transform="translate(592,431)"/>
<path d="M0 0 C0.33 0 0.66 0 1 0 C1.22084624 6.09781001 1.01167675 11.21642935 -1 17 C-1.33 17 -1.66 17 -2 17 C-2.21824777 10.9981863 -1.5056904 5.80766296 0 0 Z " fill="#FEF6BD" transform="translate(921,270)"/>
<path d="M0 0 C0.66 0 1.32 0 2 0 C1.67 2.64 1.34 5.28 1 8 C0.01 8.33 -0.98 8.66 -2 9 C-2 6.69 -2 4.38 -2 2 C-1.34 2 -0.68 2 0 2 C0 1.34 0 0.68 0 0 Z " fill="#EAC534" transform="translate(907,328)"/>
<path d="M0 0 C0.33 0 0.66 0 1 0 C0.47462276 5.0302076 -0.10594786 10.01885239 -1 15 C-1.33 15 -1.66 15 -2 15 C-2 11.04 -2 7.08 -2 3 C-1.34 3 -0.68 3 0 3 C0 2.01 0 1.02 0 0 Z " fill="#FDF4B0" transform="translate(645,448)"/>
<path d="M0 0 C0.33 0 0.66 0 1 0 C0.98839844 0.84304688 0.97679687 1.68609375 0.96484375 2.5546875 C0.95582031 3.65039062 0.94679688 4.74609375 0.9375 5.875 C0.92589844 6.96554687 0.91429687 8.05609375 0.90234375 9.1796875 C0.80255697 11.95177546 0.80255697 11.95177546 2 14 C0.68 14 -0.64 14 -2 14 C-1.34 9.38 -0.68 4.76 0 0 Z " fill="#E2C655" transform="translate(622,568)"/>
<path d="M0 0 C3.3 0 6.6 0 10 0 C10 0.33 10 0.66 10 1 C8.9275 1.103125 7.855 1.20625 6.75 1.3125 C3.14179128 1.97400493 1.63604977 2.57483421 -1 5 C-0.67 3.35 -0.34 1.7 0 0 Z " fill="#F9CA1F" transform="translate(692,268)"/>
<path d="M0 0 C0.33 0 0.66 0 1 0 C1.125 7.625 1.125 7.625 0 11 C-0.66 11 -1.32 11 -2 11 C-1.125 3.375 -1.125 3.375 0 0 Z " fill="#E7C847" transform="translate(625,556)"/>
<path d="M0 0 C0.99 0.33 1.98 0.66 3 1 C3.125 3.875 3.125 3.875 3 7 C2.34 7.66 1.68 8.32 1 9 C0.67 6.03 0.34 3.06 0 0 Z " fill="#2C2C2A" transform="translate(385,526)"/>
<path d="M0 0 C0.33 0 0.66 0 1 0 C1.20140476 3.62528568 0.85776765 5.86501708 -1 9 C-1.99 9 -2.98 9 -4 9 C-2.80100302 5.9168649 -1.52299523 2.93720508 0 0 Z " fill="#252623" transform="translate(498,426)"/>
<path d="M0 0 C0.66 0.33 1.32 0.66 2 1 C-0.475 5.455 -0.475 5.455 -3 10 C-3.66 9.01 -4.32 8.02 -5 7 C-3.35 4.69 -1.7 2.38 0 0 Z " fill="#3C2802" transform="translate(686,270)"/>
<path d="M0 0 C2 2 2 2 2.125 5.125 C2.08375 6.07375 2.0425 7.0225 2 8 C1.01 8.33 0.02 8.66 -1 9 C-0.67 6.03 -0.34 3.06 0 0 Z " fill="#0F0F0D" transform="translate(389,535)"/>
<path d="M0 0 C0.66 0 1.32 0 2 0 C1.49396008 2.16874252 1.00016187 3.99967627 0 6 C-0.99 5.67 -1.98 5.34 -3 5 C-1.625 2.5 -1.625 2.5 0 0 Z " fill="#252523" transform="translate(517,393)"/>
</svg>
