<svg xmlns="http://www.w3.org/2000/svg" viewBox="0 0 1200 630" role="img" aria-label="Pedreiro e obras">
  <defs>
    <linearGradient id="bg" x1="0" y1="0" x2="0" y2="1">
      <stop offset="0" stop-color="#fffaea"/>
      <stop offset="1" stop-color="#f5f3ef"/>
    </linearGradient>
  </defs>
  <rect width="1200" height="630" fill="url(#bg)"/>
  <g transform="translate(440 140)" stroke="#1a1a1a" stroke-width="4" fill="#FFC107">
    <rect x="0" y="0" width="140" height="60" rx="4"/>
    <rect x="160" y="0" width="140" height="60" rx="4"/>
    <rect x="-60" y="80" width="140" height="60" rx="4"/>
    <rect x="100" y="80" width="140" height="60" rx="4"/>
    <rect x="260" y="80" width="80" height="60" rx="4"/>
    <rect x="0" y="160" width="140" height="60" rx="4"/>
    <rect x="160" y="160" width="140" height="60" rx="4"/>
    <rect x="-60" y="240" width="140" height="60" rx="4"/>
    <rect x="100" y="240" width="140" height="60" rx="4"/>
    <rect x="260" y="240" width="80" height="60" rx="4"/>
  </g>
  <text x="600" y="500" text-anchor="middle" font-family="system-ui, -apple-system, sans-serif" font-size="40" font-weight="700" fill="#1a1a1a">Obras &amp; Remodelação</text>
  <text x="600" y="560" text-anchor="middle" font-family="system-ui, -apple-system, sans-serif" font-size="24" fill="#6b6b6b">VITFIX Portugal</text>
</svg>
