<svg xmlns="http://www.w3.org/2000/svg" viewBox="0 0 1200 630" role="img" aria-label="Canalizador">
  <defs>
    <linearGradient id="bg" x1="0" y1="0" x2="0" y2="1">
      <stop offset="0" stop-color="#fffaea"/>
      <stop offset="1" stop-color="#f5f3ef"/>
    </linearGradient>
  </defs>
  <rect width="1200" height="630" fill="url(#bg)"/>
  <g transform="translate(420 110)">
    <rect x="0" y="20" width="60" height="280" fill="#1a1a1a"/>
    <rect x="40" y="20" width="280" height="60" fill="#1a1a1a"/>
    <rect x="280" y="20" width="60" height="180" fill="#1a1a1a"/>
    <circle cx="310" cy="220" r="36" fill="#FFC107"/>
    <path d="M310 256 q-22 30 -22 60 a22 22 0 0 0 44 0 q0 -30 -22 -60z" fill="#1a1a1a"/>
    <path d="M310 320 q-12 18 -12 32 a12 12 0 0 0 24 0 q0 -14 -12 -32z" fill="#FFC107"/>
  </g>
  <text x="600" y="500" text-anchor="middle" font-family="system-ui, -apple-system, sans-serif" font-size="40" font-weight="700" fill="#1a1a1a">Canalização &amp; Picheleiro</text>
  <text x="600" y="560" text-anchor="middle" font-family="system-ui, -apple-system, sans-serif" font-size="24" fill="#6b6b6b">VITFIX Portugal</text>
</svg>
